<mxfile host="app.diagrams.net" modified="2021-12-20T09:31:16.481Z" agent="5.0 (X11; Linux x86_64) AppleWebKit/537.36 (KHTML, like Gecko) Chrome/93.0.4577.63 Safari/537.36" etag="4WZE5uTnSZfzdD1XzaIQ" version="15.7.0" type="github">
  <diagram name="Page-1" id="03018318-947c-dd8e-b7a3-06fadd420f32">
    <mxGraphModel dx="1350" dy="745" grid="1" gridSize="10" guides="1" tooltips="1" connect="1" arrows="1" fold="1" page="1" pageScale="1" pageWidth="1100" pageHeight="850" background="#ffffff" math="0" shadow="0">
      <root>
        <mxCell id="0" />
        <mxCell id="1" parent="0" />
        <mxCell id="677b7b8949515195-3" value="Search" style="strokeWidth=1;shadow=0;dashed=0;align=center;html=1;shape=mxgraph.mockup.forms.searchBox;strokeColor=#999999;mainText=;strokeColor2=#008cff;fontColor=#666666;fontSize=17;align=left;spacingLeft=3;rounded=0;labelBackgroundColor=none;comic=1;" parent="1" vertex="1">
          <mxGeometry x="840" y="170" width="220" height="30" as="geometry" />
        </mxCell>
        <mxCell id="677b7b8949515195-11" value="Section 1" style="text;html=1;points=[];align=left;verticalAlign=top;spacingTop=-4;fontSize=14;fontFamily=Verdana" parent="1" vertex="1">
          <mxGeometry x="330" y="175" width="60" height="20" as="geometry" />
        </mxCell>
        <mxCell id="677b7b8949515195-12" value="Section 2" style="text;html=1;points=[];align=left;verticalAlign=top;spacingTop=-4;fontSize=14;fontFamily=Verdana" parent="1" vertex="1">
          <mxGeometry x="477" y="175" width="60" height="20" as="geometry" />
        </mxCell>
        <mxCell id="677b7b8949515195-13" value="Section 3" style="text;html=1;points=[];align=left;verticalAlign=top;spacingTop=-4;fontSize=14;fontFamily=Verdana" parent="1" vertex="1">
          <mxGeometry x="623" y="175" width="60" height="20" as="geometry" />
        </mxCell>
        <mxCell id="677b7b8949515195-14" value="Section 4" style="text;html=1;points=[];align=left;verticalAlign=top;spacingTop=-4;fontSize=14;fontFamily=Verdana" parent="1" vertex="1">
          <mxGeometry x="770" y="175" width="60" height="20" as="geometry" />
        </mxCell>
        <mxCell id="677b7b8949515195-16" value="" style="verticalLabelPosition=bottom;shadow=0;dashed=0;align=center;html=1;verticalAlign=top;strokeWidth=1;shape=mxgraph.mockup.graphics.simpleIcon;strokeColor=#999999;rounded=0;labelBackgroundColor=none;fontFamily=Verdana;fontSize=14;fontColor=#000000;comic=1;" parent="1" vertex="1">
          <mxGeometry x="250" y="230" width="820" height="600" as="geometry" />
        </mxCell>
        <mxCell id="677b7b8949515195-27" value="Type" style="text;html=1;points=[];align=left;verticalAlign=top;spacingTop=-4;fontSize=14;fontFamily=Verdana" parent="1" vertex="1">
          <mxGeometry x="40" y="250" width="170" height="20" as="geometry" />
        </mxCell>
        <mxCell id="677b7b8949515195-35" value="Tags" style="text;html=1;points=[];align=left;verticalAlign=top;spacingTop=-4;fontSize=14;fontFamily=Verdana" parent="1" vertex="1">
          <mxGeometry x="40" y="607" width="170" height="20" as="geometry" />
        </mxCell>
        <mxCell id="677b7b8949515195-40" value="Locations" style="text;html=1;points=[];align=left;verticalAlign=top;spacingTop=-4;fontSize=14;fontFamily=Verdana" parent="1" vertex="1">
          <mxGeometry x="40" y="429" width="170" height="20" as="geometry" />
        </mxCell>
        <mxCell id="4H-Xog6x97mg5r4-ALUe-1" value="&lt;b&gt;&lt;font style=&quot;font-size: 30px&quot;&gt;Files&lt;/font&gt;&lt;/b&gt;" style="text;html=1;points=[];align=left;verticalAlign=top;spacingTop=-4;fontSize=14;fontFamily=Verdana" vertex="1" parent="1">
          <mxGeometry x="40" y="170" width="170" height="20" as="geometry" />
        </mxCell>
        <mxCell id="4H-Xog6x97mg5r4-ALUe-2" value="&lt;span style=&quot;font-size: 14px ; text-align: left&quot;&gt;location分类&lt;/span&gt;" style="rounded=0;whiteSpace=wrap;html=1;fontSize=30;" vertex="1" parent="1">
          <mxGeometry x="60" y="460" width="120" height="130" as="geometry" />
        </mxCell>
        <mxCell id="4H-Xog6x97mg5r4-ALUe-3" value="&lt;span style=&quot;font-size: 14px ; text-align: left&quot;&gt;tags分类&lt;/span&gt;" style="rounded=0;whiteSpace=wrap;html=1;fontSize=30;" vertex="1" parent="1">
          <mxGeometry x="60" y="650" width="120" height="130" as="geometry" />
        </mxCell>
        <mxCell id="4H-Xog6x97mg5r4-ALUe-4" value="&lt;font style=&quot;font-size: 14px&quot;&gt;type分类&lt;/font&gt;" style="rounded=0;whiteSpace=wrap;html=1;fontSize=30;align=center;" vertex="1" parent="1">
          <mxGeometry x="60" y="280" width="120" height="130" as="geometry" />
        </mxCell>
        <mxCell id="4H-Xog6x97mg5r4-ALUe-5" value="文件信息" style="rounded=0;whiteSpace=wrap;html=1;fontSize=14;align=center;" vertex="1" parent="1">
          <mxGeometry x="593" y="495" width="120" height="60" as="geometry" />
        </mxCell>
        <mxCell id="4H-Xog6x97mg5r4-ALUe-6" value="" style="rounded=0;whiteSpace=wrap;html=1;fontSize=14;align=center;fillColor=none;" vertex="1" parent="1">
          <mxGeometry x="20" y="155" width="210" height="675" as="geometry" />
        </mxCell>
        <mxCell id="4H-Xog6x97mg5r4-ALUe-7" value="" style="rounded=0;whiteSpace=wrap;html=1;fontSize=14;fillColor=none;align=center;" vertex="1" parent="1">
          <mxGeometry x="250" y="155" width="820" height="60" as="geometry" />
        </mxCell>
      </root>
    </mxGraphModel>
  </diagram>
</mxfile>
